# This file uses centimeters as units for non-parametric coordinates.

g default
v -12.923286 -4.641053 0.000000
v -6.461643 -4.641053 0.000000
v 0.000000 -4.641053 0.000000
v 6.461643 -4.641053 0.000000
v 12.923286 -4.641053 0.000000
v -12.923286 -2.320527 0.000000
v -6.461643 -2.320527 0.000000
v 0.000000 -2.320527 0.000000
v 6.461643 -2.320527 0.000000
v 12.923286 -2.320527 0.000000
v -12.923286 0.000000 0.000000
v -6.461643 0.000000 0.000000
v 0.000000 0.000000 0.000000
v 6.461643 0.000000 0.000000
v 12.923286 0.000000 0.000000
v -12.923286 2.320527 0.000000
v -6.461643 2.320527 0.000000
v 0.000000 2.320527 0.000000
v 6.461643 2.320527 0.000000
v 12.923286 2.320527 0.000000
v -12.923286 4.641053 0.000000
v -6.461643 4.641053 0.000000
v 0.000000 4.641053 0.000000
v 6.461643 4.641053 0.000000
v 12.923286 4.641053 0.000000
v -12.923286 -4.641053 0.000000
v -6.461643 -4.641053 0.000000
v 0.000000 -4.641053 0.000000
v 6.461643 -4.641053 0.000000
v 12.923286 -4.641053 0.000000
v -12.923286 -2.320527 0.000000
v -6.461643 -2.320527 0.000000
v 0.000000 -2.320527 0.000000
v 6.461643 -2.320527 0.000000
v 12.923286 -2.320527 0.000000
v -12.923286 0.000000 0.000000
v -6.461643 0.000000 0.000000
v 0.000000 0.000000 0.000000
v 6.461643 0.000000 0.000000
v 12.923286 0.000000 0.000000
v -12.923286 2.320527 0.000000
v -6.461643 2.320527 0.000000
v 0.000000 2.320527 0.000000
v 6.461643 2.320527 0.000000
v 12.923286 2.320527 0.000000
v -12.923286 4.641053 0.000000
v -6.461643 4.641053 0.000000
v 0.000000 4.641053 0.000000
v 6.461643 4.641053 0.000000
v 12.923286 4.641053 0.000000
vt 1.002488 0.000000
vt 0.752488 0.000000
vt 0.752488 0.250000
vt 1.002488 0.250000
vt 0.502488 0.000000
vt 0.502488 0.250000
vt 0.252488 0.000000
vt 0.252488 0.250000
vt 0.002488 0.000000
vt 0.002488 0.250000
vt 0.752488 0.500000
vt 1.002488 0.500000
vt 0.502488 0.500000
vt 0.252488 0.500000
vt 0.002488 0.500000
vt 0.752488 0.750000
vt 1.002488 0.750000
vt 0.502488 0.750000
vt 0.252488 0.750000
vt 0.002488 0.750000
vt 0.752488 1.000000
vt 1.002488 1.000000
vt 0.502488 1.000000
vt 0.252488 1.000000
vt 0.002488 1.000000
vt 1.000000 0.000000
vt 0.750000 0.000000
vt 0.750000 0.250000
vt 1.000000 0.250000
vt 0.500000 0.000000
vt 0.500000 0.250000
vt 0.250000 0.000000
vt 0.250000 0.250000
vt 0.000000 0.000000
vt 0.000000 0.250000
vt 0.750000 0.500000
vt 1.000000 0.500000
vt 0.500000 0.500000
vt 0.250000 0.500000
vt 0.000000 0.500000
vt 0.750000 0.750000
vt 1.000000 0.750000
vt 0.500000 0.750000
vt 0.250000 0.750000
vt 0.000000 0.750000
vt 0.750000 1.000000
vt 1.000000 1.000000
vt 0.500000 1.000000
vt 0.250000 1.000000
vt 0.000000 1.000000
vn 0.000000 0.000000 1.000000
vn 0.000000 0.000000 1.000000
vn 0.000000 0.000000 1.000000
vn 0.000000 0.000000 1.000000
vn 0.000000 0.000000 1.000000
vn 0.000000 0.000000 1.000000
vn 0.000000 0.000000 1.000000
vn 0.000000 0.000000 1.000000
vn 0.000000 0.000000 1.000000
vn 0.000000 0.000000 1.000000
vn 0.000000 0.000000 1.000000
vn 0.000000 0.000000 1.000000
vn 0.000000 0.000000 1.000000
vn 0.000000 0.000000 1.000000
vn 0.000000 0.000000 1.000000
vn 0.000000 0.000000 1.000000
vn 0.000000 0.000000 1.000000
vn 0.000000 0.000000 1.000000
vn 0.000000 0.000000 1.000000
vn 0.000000 0.000000 1.000000
vn 0.000000 0.000000 1.000000
vn 0.000000 0.000000 1.000000
vn 0.000000 0.000000 1.000000
vn 0.000000 0.000000 1.000000
vn 0.000000 0.000000 1.000000
vn 0.000000 0.000000 1.000000
vn 0.000000 0.000000 1.000000
vn 0.000000 0.000000 1.000000
vn 0.000000 0.000000 1.000000
vn 0.000000 0.000000 1.000000
vn 0.000000 0.000000 1.000000
vn 0.000000 0.000000 1.000000
vn 0.000000 0.000000 1.000000
vn 0.000000 0.000000 1.000000
vn 0.000000 0.000000 1.000000
vn 0.000000 0.000000 1.000000
vn 0.000000 0.000000 1.000000
vn 0.000000 0.000000 1.000000
vn 0.000000 0.000000 1.000000
vn 0.000000 0.000000 1.000000
vn 0.000000 0.000000 1.000000
vn 0.000000 0.000000 1.000000
vn 0.000000 0.000000 1.000000
vn 0.000000 0.000000 1.000000
vn 0.000000 0.000000 1.000000
vn 0.000000 0.000000 1.000000
vn 0.000000 0.000000 1.000000
vn 0.000000 0.000000 1.000000
vn 0.000000 0.000000 1.000000
vn 0.000000 0.000000 1.000000
vn 0.000000 0.000000 1.000000
vn 0.000000 0.000000 1.000000
vn 0.000000 0.000000 1.000000
vn 0.000000 0.000000 1.000000
vn 0.000000 0.000000 1.000000
vn 0.000000 0.000000 1.000000
vn 0.000000 0.000000 1.000000
vn 0.000000 0.000000 1.000000
vn 0.000000 0.000000 1.000000
vn 0.000000 0.000000 1.000000
vn 0.000000 0.000000 1.000000
vn 0.000000 0.000000 1.000000
vn 0.000000 0.000000 1.000000
vn 0.000000 0.000000 1.000000
vn 0.000000 0.000000 1.000000
vn 0.000000 0.000000 1.000000
vn 0.000000 0.000000 1.000000
vn 0.000000 0.000000 1.000000
vn 0.000000 0.000000 1.000000
vn 0.000000 0.000000 1.000000
vn 0.000000 0.000000 1.000000
vn 0.000000 0.000000 1.000000
vn 0.000000 0.000000 1.000000
vn 0.000000 0.000000 1.000000
vn 0.000000 0.000000 1.000000
vn 0.000000 0.000000 1.000000
vn 0.000000 0.000000 1.000000
vn 0.000000 0.000000 1.000000
vn 0.000000 0.000000 1.000000
vn 0.000000 0.000000 1.000000
vn 0.000000 0.000000 1.000000
vn 0.000000 0.000000 1.000000
vn 0.000000 0.000000 1.000000
vn 0.000000 0.000000 1.000000
vn 0.000000 0.000000 1.000000
vn 0.000000 0.000000 1.000000
vn 0.000000 0.000000 1.000000
vn 0.000000 0.000000 1.000000
vn 0.000000 0.000000 1.000000
vn 0.000000 0.000000 1.000000
vn 0.000000 0.000000 1.000000
vn 0.000000 0.000000 1.000000
vn 0.000000 0.000000 1.000000
vn 0.000000 0.000000 1.000000
vn 0.000000 0.000000 1.000000
vn 0.000000 0.000000 1.000000
vn 0.000000 0.000000 1.000000
vn 0.000000 0.000000 1.000000
vn 0.000000 0.000000 1.000000
vn 0.000000 0.000000 1.000000
vn 0.000000 0.000000 1.000000
vn 0.000000 0.000000 1.000000
vn 0.000000 0.000000 1.000000
vn 0.000000 0.000000 1.000000
vn 0.000000 0.000000 1.000000
vn 0.000000 0.000000 1.000000
vn 0.000000 0.000000 1.000000
vn 0.000000 0.000000 1.000000
vn 0.000000 0.000000 1.000000
vn 0.000000 0.000000 1.000000
vn 0.000000 0.000000 1.000000
vn 0.000000 0.000000 1.000000
vn 0.000000 0.000000 1.000000
vn 0.000000 0.000000 1.000000
vn 0.000000 0.000000 1.000000
vn 0.000000 0.000000 1.000000
vn 0.000000 0.000000 1.000000
vn 0.000000 0.000000 1.000000
vn 0.000000 0.000000 1.000000
vn 0.000000 0.000000 1.000000
vn 0.000000 0.000000 1.000000
vn 0.000000 0.000000 1.000000
vn 0.000000 0.000000 1.000000
vn 0.000000 0.000000 1.000000
vn 0.000000 0.000000 1.000000
vn 0.000000 0.000000 1.000000
vn 0.000000 0.000000 1.000000
vn 0.000000 0.000000 1.000000
s off
g mirror:pPlane1
f 1/1/1 2/2/2 7/3/3 6/4/4
f 2/2/5 3/5/6 8/6/7 7/3/8
f 3/5/9 4/7/10 9/8/11 8/6/12
f 4/7/13 5/9/14 10/10/15 9/8/16
f 6/4/17 7/3/18 12/11/19 11/12/20
f 7/3/21 8/6/22 13/13/23 12/11/24
f 8/6/25 9/8/26 14/14/27 13/13/28
f 9/8/29 10/10/30 15/15/31 14/14/32
f 11/12/33 12/11/34 17/16/35 16/17/36
f 12/11/37 13/13/38 18/18/39 17/16/40
f 13/13/41 14/14/42 19/19/43 18/18/44
f 14/14/45 15/15/46 20/20/47 19/19/48
f 16/17/49 17/16/50 22/21/51 21/22/52
f 17/16/53 18/18/54 23/23/55 22/21/56
f 18/18/57 19/19/58 24/24/59 23/23/60
f 19/19/61 20/20/62 25/25/63 24/24/64
f 26/26/65 27/27/66 32/28/67 31/29/68
f 27/27/69 28/30/70 33/31/71 32/28/72
f 28/30/73 29/32/74 34/33/75 33/31/76
f 29/32/77 30/34/78 35/35/79 34/33/80
f 31/29/81 32/28/82 37/36/83 36/37/84
f 32/28/85 33/31/86 38/38/87 37/36/88
f 33/31/89 34/33/90 39/39/91 38/38/92
f 34/33/93 35/35/94 40/40/95 39/39/96
f 36/37/97 37/36/98 42/41/99 41/42/100
f 37/36/101 38/38/102 43/43/103 42/41/104
f 38/38/105 39/39/106 44/44/107 43/43/108
f 39/39/109 40/40/110 45/45/111 44/44/112
f 41/42/113 42/41/114 47/46/115 46/47/116
f 42/41/117 43/43/118 48/48/119 47/46/120
f 43/43/121 44/44/122 49/49/123 48/48/124
f 44/44/125 45/45/126 50/50/127 49/49/128
