# This file uses centimeters as units for non-parametric coordinates.

g default
v 0.192737 0.001540 -0.140032
v 0.073619 0.001540 -0.226576
v -0.073619 0.001540 -0.226576
v -0.192737 0.001540 -0.140031
v -0.238236 0.001540 0.000000
v -0.192737 0.001540 0.140032
v -0.073619 0.001540 0.226576
v 0.073619 0.001540 0.226576
v 0.192737 0.001540 0.140031
v 0.238236 0.001540 0.000000
v 0.192737 4.168969 -0.140032
v 0.073619 4.168969 -0.226576
v -0.073619 4.168969 -0.226576
v -0.192737 4.168969 -0.140031
v -0.238236 4.168969 0.000000
v -0.192737 4.168969 0.140032
v -0.073619 4.168969 0.226576
v 0.073619 4.168969 0.226576
v 0.192737 4.168969 0.140031
v 0.238236 4.168969 0.000000
v 0.000000 0.001540 0.000000
v 0.000000 4.168969 0.000000
v 0.192719 4.167152 -0.140019
v 0.073612 4.167152 -0.226555
v -0.073612 4.167152 -0.226555
v -0.192719 4.167152 -0.140019
v -0.238214 4.167152 0.000000
v -0.192719 4.167152 0.140019
v -0.073612 4.167152 0.226555
v 0.073612 4.167152 0.226555
v 0.192719 4.167152 0.140019
v 0.238214 4.167152 0.000000
v 0.000000 4.643580 0.000000
v 0.192737 -0.140032 -0.001540
v 0.073619 -0.226576 -0.001540
v -0.073619 -0.226576 -0.001540
v -0.192737 -0.140031 -0.001540
v -0.238236 0.000000 -0.001540
v -0.192737 0.140032 -0.001540
v -0.073619 0.226576 -0.001540
v 0.073619 0.226576 -0.001540
v 0.192737 0.140031 -0.001540
v 0.238236 0.000000 -0.001540
v 0.192737 -0.140032 -4.168969
v 0.073619 -0.226576 -4.168969
v -0.073619 -0.226576 -4.168969
v -0.192737 -0.140031 -4.168969
v -0.238236 0.000000 -4.168969
v -0.192737 0.140032 -4.168969
v -0.073619 0.226576 -4.168969
v 0.073619 0.226576 -4.168969
v 0.192737 0.140031 -4.168969
v 0.238236 0.000000 -4.168969
v 0.000000 0.000000 -0.001540
v 0.000000 0.000000 -4.168969
v 0.192719 -0.140019 -4.167152
v 0.073612 -0.226555 -4.167152
v -0.073612 -0.226555 -4.167152
v -0.192719 -0.140019 -4.167152
v -0.238214 0.000000 -4.167152
v -0.192719 0.140019 -4.167152
v -0.073612 0.226555 -4.167152
v 0.073612 0.226555 -4.167152
v 0.192719 0.140019 -4.167152
v 0.238214 0.000000 -4.167152
v 0.000000 0.000000 -4.643580
v 0.001540 -0.192737 -0.140032
v 0.001540 -0.073619 -0.226576
v 0.001540 0.073619 -0.226576
v 0.001540 0.192737 -0.140031
v 0.001540 0.238236 0.000000
v 0.001540 0.192737 0.140032
v 0.001540 0.073619 0.226576
v 0.001540 -0.073619 0.226576
v 0.001540 -0.192737 0.140031
v 0.001540 -0.238236 0.000000
v 4.168969 -0.192737 -0.140032
v 4.168969 -0.073619 -0.226576
v 4.168969 0.073619 -0.226576
v 4.168969 0.192737 -0.140031
v 4.168969 0.238236 0.000000
v 4.168969 0.192737 0.140032
v 4.168969 0.073619 0.226576
v 4.168969 -0.073619 0.226576
v 4.168969 -0.192737 0.140031
v 4.168969 -0.238236 0.000000
v 0.001540 0.000000 0.000000
v 4.168969 0.000000 0.000000
v 4.167152 -0.192719 -0.140019
v 4.167152 -0.073612 -0.226555
v 4.167152 0.073612 -0.226555
v 4.167152 0.192719 -0.140019
v 4.167152 0.238214 0.000000
v 4.167152 0.192719 0.140019
v 4.167152 0.073612 0.226555
v 4.167152 -0.073612 0.226555
v 4.167152 -0.192719 0.140019
v 4.167152 -0.238214 0.000000
v 4.643580 0.000000 0.000000
vt 0.626409 0.064409
vt 0.548284 0.007647
vt 0.451716 0.007647
vt 0.373591 0.064409
vt 0.343750 0.156250
vt 0.373591 0.248091
vt 0.451716 0.304853
vt 0.548284 0.304853
vt 0.626409 0.248091
vt 0.656250 0.156250
vt 0.375000 0.312500
vt 0.400000 0.312500
vt 0.425000 0.312500
vt 0.450000 0.312500
vt 0.475000 0.312500
vt 0.500000 0.312500
vt 0.525000 0.312500
vt 0.550000 0.312500
vt 0.575000 0.312500
vt 0.600000 0.312500
vt 0.625000 0.312500
vt 0.375000 0.688440
vt 0.400000 0.688440
vt 0.425000 0.688440
vt 0.450000 0.688440
vt 0.475000 0.688440
vt 0.500000 0.688440
vt 0.525000 0.688440
vt 0.550000 0.688440
vt 0.575000 0.688440
vt 0.600000 0.688440
vt 0.625000 0.688440
vt 0.626409 0.751909
vt 0.548284 0.695147
vt 0.451716 0.695147
vt 0.373591 0.751909
vt 0.343750 0.843750
vt 0.373591 0.935591
vt 0.451716 0.992353
vt 0.548284 0.992353
vt 0.626409 0.935591
vt 0.656250 0.843750
vt 0.500000 0.150000
vt 0.500000 0.837500
vt 0.702254 0.103054
vt 0.750000 0.250000
vt 0.702254 0.396946
vt 0.577254 0.487764
vt 0.422746 0.487764
vt 0.297746 0.396946
vt 0.250000 0.250000
vt 0.297746 0.103054
vt 0.422746 0.012236
vt 0.577254 0.012236
vt 0.250000 0.500000
vt 0.300000 0.500000
vt 0.500000 1.000000
vt 0.350000 0.500000
vt 0.400000 0.500000
vt 0.450000 0.500000
vt 0.500000 0.500000
vt 0.550000 0.500000
vt 0.600000 0.500000
vt 0.650000 0.500000
vt 0.700000 0.500000
vt 0.750000 0.500000
vt 0.375000 0.312500
vt 0.400000 0.312500
vt 0.400000 0.688440
vt 0.375000 0.688440
vt 0.425000 0.312500
vt 0.425000 0.688440
vt 0.450000 0.312500
vt 0.450000 0.688440
vt 0.475000 0.312500
vt 0.475000 0.688440
vt 0.500000 0.312500
vt 0.500000 0.688440
vt 0.525000 0.312500
vt 0.525000 0.688440
vt 0.550000 0.312500
vt 0.550000 0.688440
vt 0.575000 0.312500
vt 0.575000 0.688440
vt 0.600000 0.312500
vt 0.600000 0.688440
vt 0.625000 0.312500
vt 0.625000 0.688440
vt 0.548284 0.007647
vt 0.626409 0.064409
vt 0.500000 0.150000
vt 0.451716 0.007647
vt 0.373591 0.064409
vt 0.343750 0.156250
vt 0.373591 0.248091
vt 0.451716 0.304853
vt 0.548284 0.304853
vt 0.626409 0.248091
vt 0.656250 0.156250
vt 0.626409 0.935591
vt 0.548284 0.992353
vt 0.500000 0.837500
vt 0.451716 0.992353
vt 0.373591 0.935591
vt 0.343750 0.843750
vt 0.373591 0.751909
vt 0.451716 0.695147
vt 0.548284 0.695147
vt 0.626409 0.751909
vt 0.656250 0.843750
vt 0.702254 0.103054
vt 0.750000 0.250000
vt 0.702254 0.396946
vt 0.577254 0.487764
vt 0.422746 0.487764
vt 0.297746 0.396946
vt 0.250000 0.250000
vt 0.297746 0.103054
vt 0.422746 0.012236
vt 0.577254 0.012236
vt 0.250000 0.500000
vt 0.300000 0.500000
vt 0.500000 1.000000
vt 0.350000 0.500000
vt 0.400000 0.500000
vt 0.450000 0.500000
vt 0.500000 0.500000
vt 0.550000 0.500000
vt 0.600000 0.500000
vt 0.650000 0.500000
vt 0.700000 0.500000
vt 0.750000 0.500000
vt 0.375000 0.312500
vt 0.400000 0.312500
vt 0.400000 0.688440
vt 0.375000 0.688440
vt 0.425000 0.312500
vt 0.425000 0.688440
vt 0.450000 0.312500
vt 0.450000 0.688440
vt 0.475000 0.312500
vt 0.475000 0.688440
vt 0.500000 0.312500
vt 0.500000 0.688440
vt 0.525000 0.312500
vt 0.525000 0.688440
vt 0.550000 0.312500
vt 0.550000 0.688440
vt 0.575000 0.312500
vt 0.575000 0.688440
vt 0.600000 0.312500
vt 0.600000 0.688440
vt 0.625000 0.312500
vt 0.625000 0.688440
vt 0.548284 0.007647
vt 0.626409 0.064409
vt 0.500000 0.150000
vt 0.451716 0.007647
vt 0.373591 0.064409
vt 0.343750 0.156250
vt 0.373591 0.248091
vt 0.451716 0.304853
vt 0.548284 0.304853
vt 0.626409 0.248091
vt 0.656250 0.156250
vt 0.626409 0.935591
vt 0.548284 0.992353
vt 0.500000 0.837500
vt 0.451716 0.992353
vt 0.373591 0.935591
vt 0.343750 0.843750
vt 0.373591 0.751909
vt 0.451716 0.695147
vt 0.548284 0.695147
vt 0.626409 0.751909
vt 0.656250 0.843750
vt 0.702254 0.103054
vt 0.750000 0.250000
vt 0.702254 0.396946
vt 0.577254 0.487764
vt 0.422746 0.487764
vt 0.297746 0.396946
vt 0.250000 0.250000
vt 0.297746 0.103054
vt 0.422746 0.012236
vt 0.577254 0.012236
vt 0.250000 0.500000
vt 0.300000 0.500000
vt 0.500000 1.000000
vt 0.350000 0.500000
vt 0.400000 0.500000
vt 0.450000 0.500000
vt 0.500000 0.500000
vt 0.550000 0.500000
vt 0.600000 0.500000
vt 0.650000 0.500000
vt 0.700000 0.500000
vt 0.750000 0.500000
vn 0.587785 0.000000 -0.809017
vn 0.587785 0.000000 -0.809017
vn 0.587785 0.000000 -0.809017
vn 0.587785 0.000000 -0.809017
vn -0.000000 0.000000 -1.000000
vn -0.000000 0.000000 -1.000000
vn -0.000000 0.000000 -1.000000
vn -0.000000 0.000000 -1.000000
vn -0.587785 0.000000 -0.809017
vn -0.587785 0.000000 -0.809017
vn -0.587785 0.000000 -0.809017
vn -0.587785 0.000000 -0.809017
vn -0.951057 0.000000 -0.309017
vn -0.951057 0.000000 -0.309017
vn -0.951057 0.000000 -0.309017
vn -0.951057 0.000000 -0.309017
vn -0.951057 0.000000 0.309017
vn -0.951057 0.000000 0.309017
vn -0.951057 0.000000 0.309017
vn -0.951057 0.000000 0.309017
vn -0.587785 0.000000 0.809017
vn -0.587785 0.000000 0.809017
vn -0.587785 0.000000 0.809017
vn -0.587785 0.000000 0.809017
vn 0.000000 0.000000 1.000000
vn 0.000000 0.000000 1.000000
vn 0.000000 0.000000 1.000000
vn 0.000000 0.000000 1.000000
vn 0.587785 0.000000 0.809017
vn 0.587785 0.000000 0.809017
vn 0.587785 0.000000 0.809017
vn 0.587785 0.000000 0.809017
vn 0.951057 0.000000 0.309017
vn 0.951057 0.000000 0.309017
vn 0.951057 0.000000 0.309017
vn 0.951057 0.000000 0.309017
vn 0.951057 0.000000 -0.309017
vn 0.951057 0.000000 -0.309017
vn 0.951057 0.000000 -0.309017
vn 0.951057 0.000000 -0.309017
vn 0.000000 -1.000000 0.000000
vn 0.000000 -1.000000 0.000000
vn 0.000000 -1.000000 -0.000000
vn 0.000000 -1.000000 -0.000000
vn 0.000000 -1.000000 0.000000
vn 0.000000 -1.000000 0.000000
vn 0.000000 -1.000000 -0.000000
vn 0.000000 -1.000000 -0.000000
vn 0.000000 -1.000000 -0.000000
vn 0.000000 -1.000000 0.000000
vn 0.000000 -1.000000 0.000000
vn 0.000000 1.000000 0.000000
vn 0.000000 1.000000 0.000001
vn 0.000000 1.000000 0.000000
vn 0.000000 1.000000 0.000001
vn 0.000000 1.000000 -0.000002
vn 0.000000 1.000000 -0.000002
vn 0.000000 1.000000 0.000000
vn 0.000000 1.000000 0.000000
vn 0.000000 1.000000 0.000001
vn 0.000000 1.000000 0.000001
vn 0.000000 1.000000 0.000000
vn 0.000000 -1.000000 -0.000000
vn 0.000000 -1.000000 -0.000000
vn 0.000000 -1.000000 -0.000000
vn 0.000000 -1.000000 -0.000000
vn 0.000000 -1.000000 -0.000000
vn 0.000000 -1.000000 -0.000000
vn 0.000000 -1.000000 -0.000000
vn 0.000000 -1.000000 -0.000000
vn 0.000000 -1.000000 -0.000000
vn 0.000000 -1.000000 -0.000000
vn 0.530824 0.429446 -0.730618
vn 0.530824 0.429446 -0.730618
vn 0.530824 0.429446 -0.730618
vn -0.000000 0.429446 -0.903093
vn -0.000000 0.429446 -0.903093
vn -0.000000 0.429446 -0.903093
vn -0.530825 0.429446 -0.730617
vn -0.530825 0.429446 -0.730617
vn -0.530825 0.429446 -0.730617
vn -0.858892 0.429446 -0.279072
vn -0.858892 0.429446 -0.279072
vn -0.858892 0.429446 -0.279072
vn -0.858892 0.429446 0.279072
vn -0.858892 0.429446 0.279072
vn -0.858892 0.429446 0.279072
vn -0.530824 0.429446 0.730618
vn -0.530824 0.429446 0.730618
vn -0.530824 0.429446 0.730618
vn 0.000000 0.429446 0.903093
vn 0.000000 0.429446 0.903093
vn 0.000000 0.429446 0.903093
vn 0.530824 0.429446 0.730617
vn 0.530824 0.429446 0.730617
vn 0.530824 0.429446 0.730617
vn 0.858892 0.429446 0.279071
vn 0.858892 0.429446 0.279071
vn 0.858892 0.429446 0.279071
vn 0.858892 0.429446 -0.279072
vn 0.858892 0.429446 -0.279072
vn 0.858892 0.429446 -0.279072
vn 0.587785 -0.809017 0.000000
vn 0.587785 -0.809017 0.000000
vn 0.587785 -0.809017 0.000000
vn 0.587785 -0.809017 0.000000
vn -0.000000 -1.000000 0.000000
vn -0.000000 -1.000000 0.000000
vn -0.000000 -1.000000 0.000000
vn -0.000000 -1.000000 0.000000
vn -0.587785 -0.809017 0.000000
vn -0.587785 -0.809017 0.000000
vn -0.587785 -0.809017 0.000000
vn -0.587785 -0.809017 0.000000
vn -0.951057 -0.309017 0.000000
vn -0.951057 -0.309017 0.000000
vn -0.951057 -0.309017 0.000000
vn -0.951057 -0.309017 0.000000
vn -0.951057 0.309017 0.000000
vn -0.951057 0.309017 0.000000
vn -0.951057 0.309017 0.000000
vn -0.951057 0.309017 0.000000
vn -0.587785 0.809017 0.000000
vn -0.587785 0.809017 0.000000
vn -0.587785 0.809017 0.000000
vn -0.587785 0.809017 0.000000
vn 0.000000 1.000000 0.000000
vn 0.000000 1.000000 0.000000
vn 0.000000 1.000000 0.000000
vn 0.000000 1.000000 0.000000
vn 0.587785 0.809017 0.000000
vn 0.587785 0.809017 0.000000
vn 0.587785 0.809017 0.000000
vn 0.587785 0.809017 0.000000
vn 0.951057 0.309017 0.000000
vn 0.951057 0.309017 0.000000
vn 0.951057 0.309017 0.000000
vn 0.951057 0.309017 0.000000
vn 0.951057 -0.309017 0.000000
vn 0.951057 -0.309017 0.000000
vn 0.951057 -0.309017 0.000000
vn 0.951057 -0.309017 0.000000
vn 0.000000 0.000000 1.000000
vn 0.000000 0.000000 1.000000
vn -0.000000 0.000000 1.000000
vn -0.000000 0.000000 1.000000
vn -0.000000 0.000000 1.000000
vn -0.000000 0.000000 1.000000
vn -0.000000 0.000000 1.000000
vn 0.000000 0.000000 1.000000
vn 0.000000 0.000000 1.000000
vn -0.000000 0.000000 1.000000
vn 0.000000 0.000000 1.000000
vn -0.000002 0.000000 -1.000000
vn -0.000002 0.000000 -1.000000
vn -0.000001 0.000000 -1.000000
vn 0.000000 0.000000 -1.000000
vn 0.000000 0.000000 -1.000000
vn -0.000000 0.000000 -1.000000
vn -0.000000 0.000000 -1.000000
vn 0.000000 0.000000 -1.000000
vn -0.000002 0.000000 -1.000000
vn -0.000002 0.000000 -1.000000
vn 0.000000 0.000000 -1.000000
vn 0.000000 0.000000 1.000000
vn 0.000000 0.000000 1.000000
vn 0.000000 0.000000 1.000000
vn 0.000000 0.000000 1.000000
vn 0.000000 0.000000 1.000000
vn 0.000000 0.000000 1.000000
vn 0.000000 0.000000 1.000000
vn 0.000000 0.000000 1.000000
vn 0.000000 0.000000 1.000000
vn 0.000000 0.000000 1.000000
vn 0.530825 -0.730617 -0.429446
vn 0.530825 -0.730617 -0.429446
vn 0.530825 -0.730617 -0.429446
vn -0.000002 -0.903093 -0.429446
vn -0.000002 -0.903093 -0.429446
vn -0.000002 -0.903093 -0.429446
vn -0.530823 -0.730618 -0.429447
vn -0.530823 -0.730618 -0.429447
vn -0.530823 -0.730618 -0.429447
vn -0.858892 -0.279071 -0.429446
vn -0.858892 -0.279071 -0.429446
vn -0.858892 -0.279071 -0.429446
vn -0.858892 0.279071 -0.429446
vn -0.858892 0.279071 -0.429446
vn -0.858892 0.279071 -0.429446
vn -0.530824 0.730617 -0.429446
vn -0.530824 0.730617 -0.429446
vn -0.530824 0.730617 -0.429446
vn 0.000000 0.903093 -0.429446
vn 0.000000 0.903093 -0.429446
vn 0.000000 0.903093 -0.429446
vn 0.530824 0.730617 -0.429446
vn 0.530824 0.730617 -0.429446
vn 0.530824 0.730617 -0.429446
vn 0.858892 0.279071 -0.429446
vn 0.858892 0.279071 -0.429446
vn 0.858892 0.279071 -0.429446
vn 0.858892 -0.279071 -0.429446
vn 0.858892 -0.279071 -0.429446
vn 0.858892 -0.279071 -0.429446
vn 0.000000 -0.587785 -0.809017
vn 0.000000 -0.587785 -0.809017
vn 0.000000 -0.587785 -0.809017
vn 0.000000 -0.587785 -0.809017
vn 0.000000 0.000000 -1.000000
vn 0.000000 0.000000 -1.000000
vn 0.000000 0.000000 -1.000000
vn 0.000000 0.000000 -1.000000
vn 0.000000 0.587785 -0.809017
vn 0.000000 0.587785 -0.809017
vn 0.000000 0.587785 -0.809017
vn 0.000000 0.587785 -0.809017
vn 0.000000 0.951057 -0.309017
vn 0.000000 0.951057 -0.309017
vn 0.000000 0.951057 -0.309017
vn 0.000000 0.951057 -0.309017
vn 0.000000 0.951057 0.309017
vn 0.000000 0.951057 0.309017
vn 0.000000 0.951057 0.309017
vn 0.000000 0.951057 0.309017
vn 0.000000 0.587785 0.809017
vn 0.000000 0.587785 0.809017
vn 0.000000 0.587785 0.809017
vn 0.000000 0.587785 0.809017
vn 0.000000 -0.000000 1.000000
vn 0.000000 -0.000000 1.000000
vn 0.000000 -0.000000 1.000000
vn 0.000000 -0.000000 1.000000
vn 0.000000 -0.587785 0.809017
vn 0.000000 -0.587785 0.809017
vn 0.000000 -0.587785 0.809017
vn 0.000000 -0.587785 0.809017
vn 0.000000 -0.951057 0.309017
vn 0.000000 -0.951057 0.309017
vn 0.000000 -0.951057 0.309017
vn 0.000000 -0.951057 0.309017
vn 0.000000 -0.951057 -0.309017
vn 0.000000 -0.951057 -0.309017
vn 0.000000 -0.951057 -0.309017
vn 0.000000 -0.951057 -0.309017
vn -1.000000 0.000000 0.000000
vn -1.000000 0.000000 0.000000
vn -1.000000 0.000000 0.000000
vn -1.000000 0.000000 0.000000
vn -1.000000 0.000000 0.000000
vn -1.000000 0.000000 0.000000
vn -1.000000 0.000000 0.000000
vn -1.000000 -0.000000 0.000000
vn -1.000000 -0.000000 0.000000
vn -1.000000 0.000000 0.000000
vn -1.000000 0.000000 0.000000
vn 1.000000 0.000002 0.000000
vn 1.000000 0.000002 0.000000
vn 1.000000 0.000001 0.000000
vn 1.000000 0.000000 0.000000
vn 1.000000 0.000000 0.000000
vn 1.000000 0.000000 0.000000
vn 1.000000 0.000000 0.000000
vn 1.000000 0.000000 0.000000
vn 1.000000 0.000002 0.000000
vn 1.000000 0.000002 0.000000
vn 1.000000 0.000000 0.000000
vn -1.000000 -0.000000 0.000000
vn -1.000000 -0.000000 0.000000
vn -1.000000 -0.000000 0.000000
vn -1.000000 -0.000000 0.000000
vn -1.000000 -0.000000 0.000000
vn -1.000000 -0.000000 0.000000
vn -1.000000 -0.000000 0.000000
vn -1.000000 -0.000000 0.000000
vn -1.000000 -0.000000 0.000000
vn -1.000000 -0.000000 0.000000
vn 0.429446 -0.530825 -0.730617
vn 0.429446 -0.530825 -0.730617
vn 0.429446 -0.530825 -0.730617
vn 0.429446 0.000002 -0.903093
vn 0.429446 0.000002 -0.903093
vn 0.429446 0.000002 -0.903093
vn 0.429447 0.530823 -0.730618
vn 0.429447 0.530823 -0.730618
vn 0.429447 0.530823 -0.730618
vn 0.429446 0.858892 -0.279071
vn 0.429446 0.858892 -0.279071
vn 0.429446 0.858892 -0.279071
vn 0.429446 0.858892 0.279071
vn 0.429446 0.858892 0.279071
vn 0.429446 0.858892 0.279071
vn 0.429446 0.530824 0.730617
vn 0.429446 0.530824 0.730617
vn 0.429446 0.530824 0.730617
vn 0.429446 0.000000 0.903093
vn 0.429446 0.000000 0.903093
vn 0.429446 0.000000 0.903093
vn 0.429446 -0.530824 0.730617
vn 0.429446 -0.530824 0.730617
vn 0.429446 -0.530824 0.730617
vn 0.429446 -0.858892 0.279071
vn 0.429446 -0.858892 0.279071
vn 0.429446 -0.858892 0.279071
vn 0.429446 -0.858892 -0.279071
vn 0.429446 -0.858892 -0.279071
vn 0.429446 -0.858892 -0.279071
s off
g pCylinder5
f 1/11/1 2/12/2 12/23/3 11/22/4
f 2/12/5 3/13/6 13/24/7 12/23/8
f 3/13/9 4/14/10 14/25/11 13/24/12
f 4/14/13 5/15/14 15/26/15 14/25/16
f 5/15/17 6/16/18 16/27/19 15/26/20
f 6/16/21 7/17/22 17/28/23 16/27/24
f 7/17/25 8/18/26 18/29/27 17/28/28
f 8/18/29 9/19/30 19/30/31 18/29/32
f 9/19/33 10/20/34 20/31/35 19/30/36
f 10/20/37 1/21/38 11/32/39 20/31/40
s 1
f 2/2/41 1/1/42 21/43/43
f 3/3/44 2/2/41 21/43/43
f 4/4/45 3/3/44 21/43/43
f 5/5/46 4/4/45 21/43/43
f 6/6/47 5/5/46 21/43/43
f 7/7/48 6/6/47 21/43/43
f 8/8/49 7/7/48 21/43/43
f 9/9/50 8/8/49 21/43/43
f 10/10/51 9/9/50 21/43/43
f 1/1/42 10/10/51 21/43/43
s 2
f 11/41/52 12/40/53 22/44/54
f 12/40/53 13/39/55 22/44/54
f 13/39/55 14/38/56 22/44/54
f 14/38/56 15/37/57 22/44/54
f 15/37/57 16/36/58 22/44/54
f 16/36/58 17/35/59 22/44/54
f 17/35/59 18/34/60 22/44/54
f 18/34/60 19/33/61 22/44/54
f 19/33/61 20/42/62 22/44/54
f 20/42/62 11/41/52 22/44/54
s off
f 23/45/63 32/46/64 31/47/65 30/48/66 29/49/67 28/50/68 27/51/69 26/52/70 25/53/71 24/54/72
f 23/55/73 24/56/74 33/57/75
f 24/56/76 25/58/77 33/57/78
f 25/58/79 26/59/80 33/57/81
f 26/59/82 27/60/83 33/57/84
f 27/60/85 28/61/86 33/57/87
f 28/61/88 29/62/89 33/57/90
f 29/62/91 30/63/92 33/57/93
f 30/63/94 31/64/95 33/57/96
f 31/64/97 32/65/98 33/57/99
f 32/65/100 23/66/101 33/57/102
f 34/67/103 35/68/104 45/69/105 44/70/106
f 35/68/107 36/71/108 46/72/109 45/69/110
f 36/71/111 37/73/112 47/74/113 46/72/114
f 37/73/115 38/75/116 48/76/117 47/74/118
f 38/75/119 39/77/120 49/78/121 48/76/122
f 39/77/123 40/79/124 50/80/125 49/78/126
f 40/79/127 41/81/128 51/82/129 50/80/130
f 41/81/131 42/83/132 52/84/133 51/82/134
f 42/83/135 43/85/136 53/86/137 52/84/138
f 43/85/139 34/87/140 44/88/141 53/86/142
s 3
f 35/89/143 34/90/144 54/91/145
f 36/92/146 35/89/143 54/91/145
f 37/93/147 36/92/146 54/91/145
f 38/94/148 37/93/147 54/91/145
f 39/95/149 38/94/148 54/91/145
f 40/96/150 39/95/149 54/91/145
f 41/97/151 40/96/150 54/91/145
f 42/98/152 41/97/151 54/91/145
f 43/99/153 42/98/152 54/91/145
f 34/90/144 43/99/153 54/91/145
s 4
f 44/100/154 45/101/155 55/102/156
f 45/101/155 46/103/157 55/102/156
f 46/103/157 47/104/158 55/102/156
f 47/104/158 48/105/159 55/102/156
f 48/105/159 49/106/160 55/102/156
f 49/106/160 50/107/161 55/102/156
f 50/107/161 51/108/162 55/102/156
f 51/108/162 52/109/163 55/102/156
f 52/109/163 53/110/164 55/102/156
f 53/110/164 44/100/154 55/102/156
s off
f 56/111/165 65/112/166 64/113/167 63/114/168 62/115/169 61/116/170 60/117/171 59/118/172 58/119/173 57/120/174
f 56/121/175 57/122/176 66/123/177
f 57/122/178 58/124/179 66/123/180
f 58/124/181 59/125/182 66/123/183
f 59/125/184 60/126/185 66/123/186
f 60/126/187 61/127/188 66/123/189
f 61/127/190 62/128/191 66/123/192
f 62/128/193 63/129/194 66/123/195
f 63/129/196 64/130/197 66/123/198
f 64/130/199 65/131/200 66/123/201
f 65/131/202 56/132/203 66/123/204
f 67/133/205 68/134/206 78/135/207 77/136/208
f 68/134/209 69/137/210 79/138/211 78/135/212
f 69/137/213 70/139/214 80/140/215 79/138/216
f 70/139/217 71/141/218 81/142/219 80/140/220
f 71/141/221 72/143/222 82/144/223 81/142/224
f 72/143/225 73/145/226 83/146/227 82/144/228
f 73/145/229 74/147/230 84/148/231 83/146/232
f 74/147/233 75/149/234 85/150/235 84/148/236
f 75/149/237 76/151/238 86/152/239 85/150/240
f 76/151/241 67/153/242 77/154/243 86/152/244
s 5
f 68/155/245 67/156/246 87/157/247
f 69/158/248 68/155/245 87/157/247
f 70/159/249 69/158/248 87/157/247
f 71/160/250 70/159/249 87/157/247
f 72/161/251 71/160/250 87/157/247
f 73/162/252 72/161/251 87/157/247
f 74/163/253 73/162/252 87/157/247
f 75/164/254 74/163/253 87/157/247
f 76/165/255 75/164/254 87/157/247
f 67/156/246 76/165/255 87/157/247
s 6
f 77/166/256 78/167/257 88/168/258
f 78/167/257 79/169/259 88/168/258
f 79/169/259 80/170/260 88/168/258
f 80/170/260 81/171/261 88/168/258
f 81/171/261 82/172/262 88/168/258
f 82/172/262 83/173/263 88/168/258
f 83/173/263 84/174/264 88/168/258
f 84/174/264 85/175/265 88/168/258
f 85/175/265 86/176/266 88/168/258
f 86/176/266 77/166/256 88/168/258
s off
f 89/177/267 98/178/268 97/179/269 96/180/270 95/181/271 94/182/272 93/183/273 92/184/274 91/185/275 90/186/276
f 89/187/277 90/188/278 99/189/279
f 90/188/280 91/190/281 99/189/282
f 91/190/283 92/191/284 99/189/285
f 92/191/286 93/192/287 99/189/288
f 93/192/289 94/193/290 99/189/291
f 94/193/292 95/194/293 99/189/294
f 95/194/295 96/195/296 99/189/297
f 96/195/298 97/196/299 99/189/300
f 97/196/301 98/197/302 99/189/303
f 98/197/304 89/198/305 99/189/306
